<?xml version="1.0" encoding="UTF-8" standalone="no"?>
<!-- Created with Inkscape (http://www.inkscape.org/) -->

<svg
   width="24in"
   height="12in"
   viewBox="0 0 24000000 12000000"
   version="1.1"
   id="svg3951"
   inkscape:version="1.2.1 (9c6d41e410, 2022-07-14)"
   sodipodi:docname="GenericBacking.svg"
   xmlns:inkscape="http://www.inkscape.org/namespaces/inkscape"
   xmlns:sodipodi="http://sodipodi.sourceforge.net/DTD/sodipodi-0.dtd"
   xmlns="http://www.w3.org/2000/svg"
   xmlns:svg="http://www.w3.org/2000/svg">
  <sodipodi:namedview
     id="namedview3953"
     pagecolor="#ffffff"
     bordercolor="#666666"
     borderopacity="1.0"
     inkscape:showpageshadow="2"
     inkscape:pageopacity="0.0"
     inkscape:pagecheckerboard="0"
     inkscape:deskcolor="#d1d1d1"
     inkscape:document-units="mm"
     showgrid="false"
     inkscape:zoom="0.26677458"
     inkscape:cx="862.1511"
     inkscape:cy="802.17537"
     inkscape:window-width="1920"
     inkscape:window-height="1009"
     inkscape:window-x="1912"
     inkscape:window-y="-8"
     inkscape:window-maximized="1"
     inkscape:current-layer="layer1" />
  <defs
     id="defs3948" />
  <g
     inkscape:label="Layer 1"
     inkscape:groupmode="layer"
     id="layer1">
    <g
       id="g5554"
       transform="translate(-533682.13,-350205.2)">
      <g
         id="g580"
         transform="matrix(10416.667,0,0,10416.667,779396.54,-6372584.5)"
         style="stroke:#ff0000;stroke-width:0.5;stroke-dasharray:none;stroke-opacity:1">
        <path
           d="M 291.02362,657.63779 H 0 a 11.338583,11.338583 0 0 0 -11.338583,11.33859 V 1111.1811 A 11.338583,11.338583 0 0 0 0,1122.5197 h 291.02362 a 11.338583,11.338583 0 0 0 11.33859,-11.3386 V 668.97638 a 11.338583,11.338583 0 0 0 -11.33859,-11.33859 z"
           style="fill:none;stroke:#ff0000;stroke-width:0.5;stroke-dasharray:none;stroke-opacity:1"
           id="path405" />
        <path
           d="m 158.74016,706.77165 v 128.50394 a 11.338583,11.338583 0 0 1 -11.33859,11.33858 H 56.692913 A 11.338583,11.338583 0 0 1 45.354331,835.27559 V 706.77165 a 11.338583,11.338583 0 0 1 11.338582,-11.33858 h 90.708657 a 11.338583,11.338583 0 0 1 11.33859,11.33858 z"
           style="fill:none;stroke:#ff0000;stroke-width:0.5;stroke-dasharray:none;stroke-opacity:1"
           id="path407" />
        <path
           d="m 21.732283,684.09449 a 6.614173,6.614173 0 0 0 -13.228346,0 6.614173,6.614173 0 0 0 13.228346,0 z"
           style="fill:none;stroke:#ff0000;stroke-width:0.5;stroke-dasharray:none;stroke-opacity:1"
           id="path409" />
        <path
           d="m 282.51968,684.09449 a 6.614173,6.614173 0 0 0 -13.22834,0 6.614173,6.614173 0 0 0 13.22834,0 z"
           style="fill:none;stroke:#ff0000;stroke-width:0.5;stroke-dasharray:none;stroke-opacity:1"
           id="path411" />
        <path
           d="m 21.732283,1096.063 a 6.614173,6.614173 0 0 0 -13.228346,0 6.614173,6.614173 0 0 0 13.228346,0 z"
           style="fill:none;stroke:#ff0000;stroke-width:0.5;stroke-dasharray:none;stroke-opacity:1"
           id="path413" />
        <path
           d="m 282.51968,1096.063 a 6.614173,6.614173 0 0 0 -13.22834,0 6.614173,6.614173 0 0 0 13.22834,0 z"
           style="fill:none;stroke:#ff0000;stroke-width:0.5;stroke-dasharray:none;stroke-opacity:1"
           id="path415" />
      </g>
      <g
         id="g2852"
         transform="matrix(10416.667,0,0,10416.667,4185099.5,-6372584.5)"
         style="stroke:#ff0000;stroke-width:0.5;stroke-dasharray:none;stroke-opacity:1">
        <path
           d="M 291.02362,657.63779 H 0 a 11.338583,11.338583 0 0 0 -11.338583,11.33859 V 1111.1811 A 11.338583,11.338583 0 0 0 0,1122.5197 h 291.02362 a 11.338583,11.338583 0 0 0 11.33859,-11.3386 V 668.97638 a 11.338583,11.338583 0 0 0 -11.33859,-11.33859 z"
           style="fill:none;stroke:#ff0000;stroke-width:0.5;stroke-dasharray:none;stroke-opacity:1"
           id="path2840" />
        <path
           d="m 158.74016,706.77165 v 128.50394 a 11.338583,11.338583 0 0 1 -11.33859,11.33858 H 56.692913 A 11.338583,11.338583 0 0 1 45.354331,835.27559 V 706.77165 a 11.338583,11.338583 0 0 1 11.338582,-11.33858 h 90.708657 a 11.338583,11.338583 0 0 1 11.33859,11.33858 z"
           style="fill:none;stroke:#ff0000;stroke-width:0.5;stroke-dasharray:none;stroke-opacity:1"
           id="path2842" />
        <path
           d="m 21.732283,684.09449 a 6.614173,6.614173 0 0 0 -13.228346,0 6.614173,6.614173 0 0 0 13.228346,0 z"
           style="fill:none;stroke:#ff0000;stroke-width:0.5;stroke-dasharray:none;stroke-opacity:1"
           id="path2844" />
        <path
           d="m 282.51968,684.09449 a 6.614173,6.614173 0 0 0 -13.22834,0 6.614173,6.614173 0 0 0 13.22834,0 z"
           style="fill:none;stroke:#ff0000;stroke-width:0.5;stroke-dasharray:none;stroke-opacity:1"
           id="path2846" />
        <path
           d="m 21.732283,1096.063 a 6.614173,6.614173 0 0 0 -13.228346,0 6.614173,6.614173 0 0 0 13.228346,0 z"
           style="fill:none;stroke:#ff0000;stroke-width:0.5;stroke-dasharray:none;stroke-opacity:1"
           id="path2848" />
        <path
           d="m 282.51968,1096.063 a 6.614173,6.614173 0 0 0 -13.22834,0 6.614173,6.614173 0 0 0 13.22834,0 z"
           style="fill:none;stroke:#ff0000;stroke-width:0.5;stroke-dasharray:none;stroke-opacity:1"
           id="path2850" />
      </g>
      <g
         id="g2892"
         transform="matrix(10416.667,0,0,10416.667,7588218.3,-6372584.5)"
         style="stroke:#ff0000;stroke-width:0.5;stroke-dasharray:none;stroke-opacity:1">
        <path
           d="M 291.02362,657.63779 H 0 a 11.338583,11.338583 0 0 0 -11.338583,11.33859 V 1111.1811 A 11.338583,11.338583 0 0 0 0,1122.5197 h 291.02362 a 11.338583,11.338583 0 0 0 11.33859,-11.3386 V 668.97638 a 11.338583,11.338583 0 0 0 -11.33859,-11.33859 z"
           style="fill:none;stroke:#ff0000;stroke-width:0.5;stroke-dasharray:none;stroke-opacity:1"
           id="path2880" />
        <path
           d="m 158.74016,706.77165 v 128.50394 a 11.338583,11.338583 0 0 1 -11.33859,11.33858 H 56.692913 A 11.338583,11.338583 0 0 1 45.354331,835.27559 V 706.77165 a 11.338583,11.338583 0 0 1 11.338582,-11.33858 h 90.708657 a 11.338583,11.338583 0 0 1 11.33859,11.33858 z"
           style="fill:none;stroke:#ff0000;stroke-width:0.5;stroke-dasharray:none;stroke-opacity:1"
           id="path2882" />
        <path
           d="m 21.732283,684.09449 a 6.614173,6.614173 0 0 0 -13.228346,0 6.614173,6.614173 0 0 0 13.228346,0 z"
           style="fill:none;stroke:#ff0000;stroke-width:0.5;stroke-dasharray:none;stroke-opacity:1"
           id="path2884" />
        <path
           d="m 282.51968,684.09449 a 6.614173,6.614173 0 0 0 -13.22834,0 6.614173,6.614173 0 0 0 13.22834,0 z"
           style="fill:none;stroke:#ff0000;stroke-width:0.5;stroke-dasharray:none;stroke-opacity:1"
           id="path2886" />
        <path
           d="m 21.732283,1096.063 a 6.614173,6.614173 0 0 0 -13.228346,0 6.614173,6.614173 0 0 0 13.228346,0 z"
           style="fill:none;stroke:#ff0000;stroke-width:0.5;stroke-dasharray:none;stroke-opacity:1"
           id="path2888" />
        <path
           d="m 282.51968,1096.063 a 6.614173,6.614173 0 0 0 -13.22834,0 6.614173,6.614173 0 0 0 13.22834,0 z"
           style="fill:none;stroke:#ff0000;stroke-width:0.5;stroke-dasharray:none;stroke-opacity:1"
           id="path2890" />
      </g>
      <g
         id="g2932"
         transform="matrix(10416.667,0,0,10416.667,10993921,-6372584.5)"
         style="stroke:#ff0000;stroke-width:0.5;stroke-dasharray:none;stroke-opacity:1">
        <path
           d="M 291.02362,657.63779 H 0 a 11.338583,11.338583 0 0 0 -11.338583,11.33859 V 1111.1811 A 11.338583,11.338583 0 0 0 0,1122.5197 h 291.02362 a 11.338583,11.338583 0 0 0 11.33859,-11.3386 V 668.97638 a 11.338583,11.338583 0 0 0 -11.33859,-11.33859 z"
           style="fill:none;stroke:#ff0000;stroke-width:0.5;stroke-dasharray:none;stroke-opacity:1"
           id="path2920" />
        <path
           d="m 158.74016,706.77165 v 128.50394 a 11.338583,11.338583 0 0 1 -11.33859,11.33858 H 56.692913 A 11.338583,11.338583 0 0 1 45.354331,835.27559 V 706.77165 a 11.338583,11.338583 0 0 1 11.338582,-11.33858 h 90.708657 a 11.338583,11.338583 0 0 1 11.33859,11.33858 z"
           style="fill:none;stroke:#ff0000;stroke-width:0.5;stroke-dasharray:none;stroke-opacity:1"
           id="path2922" />
        <path
           d="m 21.732283,684.09449 a 6.614173,6.614173 0 0 0 -13.228346,0 6.614173,6.614173 0 0 0 13.228346,0 z"
           style="fill:none;stroke:#ff0000;stroke-width:0.5;stroke-dasharray:none;stroke-opacity:1"
           id="path2924" />
        <path
           d="m 282.51968,684.09449 a 6.614173,6.614173 0 0 0 -13.22834,0 6.614173,6.614173 0 0 0 13.22834,0 z"
           style="fill:none;stroke:#ff0000;stroke-width:0.5;stroke-dasharray:none;stroke-opacity:1"
           id="path2926" />
        <path
           d="m 21.732283,1096.063 a 6.614173,6.614173 0 0 0 -13.228346,0 6.614173,6.614173 0 0 0 13.228346,0 z"
           style="fill:none;stroke:#ff0000;stroke-width:0.5;stroke-dasharray:none;stroke-opacity:1"
           id="path2928" />
        <path
           d="m 282.51968,1096.063 a 6.614173,6.614173 0 0 0 -13.22834,0 6.614173,6.614173 0 0 0 13.22834,0 z"
           style="fill:none;stroke:#ff0000;stroke-width:0.5;stroke-dasharray:none;stroke-opacity:1"
           id="path2930" />
      </g>
      <g
         id="g2972"
         transform="matrix(10416.667,0,0,10416.667,14395113,-6372584.5)"
         style="stroke:#ff0000;stroke-width:0.5;stroke-dasharray:none;stroke-opacity:1">
        <path
           d="M 291.02362,657.63779 H 0 a 11.338583,11.338583 0 0 0 -11.338583,11.33859 V 1111.1811 A 11.338583,11.338583 0 0 0 0,1122.5197 h 291.02362 a 11.338583,11.338583 0 0 0 11.33859,-11.3386 V 668.97638 a 11.338583,11.338583 0 0 0 -11.33859,-11.33859 z"
           style="fill:none;stroke:#ff0000;stroke-width:0.5;stroke-dasharray:none;stroke-opacity:1"
           id="path2960" />
        <path
           d="m 158.74016,706.77165 v 128.50394 a 11.338583,11.338583 0 0 1 -11.33859,11.33858 H 56.692913 A 11.338583,11.338583 0 0 1 45.354331,835.27559 V 706.77165 a 11.338583,11.338583 0 0 1 11.338582,-11.33858 h 90.708657 a 11.338583,11.338583 0 0 1 11.33859,11.33858 z"
           style="fill:none;stroke:#ff0000;stroke-width:0.5;stroke-dasharray:none;stroke-opacity:1"
           id="path2962" />
        <path
           d="m 21.732283,684.09449 a 6.614173,6.614173 0 0 0 -13.228346,0 6.614173,6.614173 0 0 0 13.228346,0 z"
           style="fill:none;stroke:#ff0000;stroke-width:0.5;stroke-dasharray:none;stroke-opacity:1"
           id="path2964" />
        <path
           d="m 282.51968,684.09449 a 6.614173,6.614173 0 0 0 -13.22834,0 6.614173,6.614173 0 0 0 13.22834,0 z"
           style="fill:none;stroke:#ff0000;stroke-width:0.5;stroke-dasharray:none;stroke-opacity:1"
           id="path2966" />
        <path
           d="m 21.732283,1096.063 a 6.614173,6.614173 0 0 0 -13.228346,0 6.614173,6.614173 0 0 0 13.228346,0 z"
           style="fill:none;stroke:#ff0000;stroke-width:0.5;stroke-dasharray:none;stroke-opacity:1"
           id="path2968" />
        <path
           d="m 282.51968,1096.063 a 6.614173,6.614173 0 0 0 -13.22834,0 6.614173,6.614173 0 0 0 13.22834,0 z"
           style="fill:none;stroke:#ff0000;stroke-width:0.5;stroke-dasharray:none;stroke-opacity:1"
           id="path2970" />
      </g>
      <g
         id="g3012"
         transform="matrix(10416.667,0,0,10416.667,17798232,-6372584.5)"
         style="stroke:#ff0000;stroke-width:0.5;stroke-dasharray:none;stroke-opacity:1">
        <path
           d="M 291.02362,657.63779 H 0 a 11.338583,11.338583 0 0 0 -11.338583,11.33859 V 1111.1811 A 11.338583,11.338583 0 0 0 0,1122.5197 h 291.02362 a 11.338583,11.338583 0 0 0 11.33859,-11.3386 V 668.97638 a 11.338583,11.338583 0 0 0 -11.33859,-11.33859 z"
           style="fill:none;stroke:#ff0000;stroke-width:0.5;stroke-dasharray:none;stroke-opacity:1"
           id="path3000" />
        <path
           d="m 158.74016,706.77165 v 128.50394 a 11.338583,11.338583 0 0 1 -11.33859,11.33858 H 56.692913 A 11.338583,11.338583 0 0 1 45.354331,835.27559 V 706.77165 a 11.338583,11.338583 0 0 1 11.338582,-11.33858 h 90.708657 a 11.338583,11.338583 0 0 1 11.33859,11.33858 z"
           style="fill:none;stroke:#ff0000;stroke-width:0.5;stroke-dasharray:none;stroke-opacity:1"
           id="path3002" />
        <path
           d="m 21.732283,684.09449 a 6.614173,6.614173 0 0 0 -13.228346,0 6.614173,6.614173 0 0 0 13.228346,0 z"
           style="fill:none;stroke:#ff0000;stroke-width:0.5;stroke-dasharray:none;stroke-opacity:1"
           id="path3004" />
        <path
           d="m 282.51968,684.09449 a 6.614173,6.614173 0 0 0 -13.22834,0 6.614173,6.614173 0 0 0 13.22834,0 z"
           style="fill:none;stroke:#ff0000;stroke-width:0.5;stroke-dasharray:none;stroke-opacity:1"
           id="path3006" />
        <path
           d="m 21.732283,1096.063 a 6.614173,6.614173 0 0 0 -13.228346,0 6.614173,6.614173 0 0 0 13.228346,0 z"
           style="fill:none;stroke:#ff0000;stroke-width:0.5;stroke-dasharray:none;stroke-opacity:1"
           id="path3008" />
        <path
           d="m 282.51968,1096.063 a 6.614173,6.614173 0 0 0 -13.22834,0 6.614173,6.614173 0 0 0 13.22834,0 z"
           style="fill:none;stroke:#ff0000;stroke-width:0.5;stroke-dasharray:none;stroke-opacity:1"
           id="path3010" />
      </g>
      <g
         id="g3052"
         transform="matrix(10416.667,0,0,10416.667,21203935,-6372584.5)"
         style="stroke:#ff0000;stroke-width:0.5;stroke-dasharray:none;stroke-opacity:1">
        <path
           d="M 291.02362,657.63779 H 0 a 11.338583,11.338583 0 0 0 -11.338583,11.33859 V 1111.1811 A 11.338583,11.338583 0 0 0 0,1122.5197 h 291.02362 a 11.338583,11.338583 0 0 0 11.33859,-11.3386 V 668.97638 a 11.338583,11.338583 0 0 0 -11.33859,-11.33859 z"
           style="fill:none;stroke:#ff0000;stroke-width:0.5;stroke-dasharray:none;stroke-opacity:1"
           id="path3040" />
        <path
           d="m 158.74016,706.77165 v 128.50394 a 11.338583,11.338583 0 0 1 -11.33859,11.33858 H 56.692913 A 11.338583,11.338583 0 0 1 45.354331,835.27559 V 706.77165 a 11.338583,11.338583 0 0 1 11.338582,-11.33858 h 90.708657 a 11.338583,11.338583 0 0 1 11.33859,11.33858 z"
           style="fill:none;stroke:#ff0000;stroke-width:0.5;stroke-dasharray:none;stroke-opacity:1"
           id="path3042" />
        <path
           d="m 21.732283,684.09449 a 6.614173,6.614173 0 0 0 -13.228346,0 6.614173,6.614173 0 0 0 13.228346,0 z"
           style="fill:none;stroke:#ff0000;stroke-width:0.5;stroke-dasharray:none;stroke-opacity:1"
           id="path3044" />
        <path
           d="m 282.51968,684.09449 a 6.614173,6.614173 0 0 0 -13.22834,0 6.614173,6.614173 0 0 0 13.22834,0 z"
           style="fill:none;stroke:#ff0000;stroke-width:0.5;stroke-dasharray:none;stroke-opacity:1"
           id="path3046" />
        <path
           d="m 21.732283,1096.063 a 6.614173,6.614173 0 0 0 -13.228346,0 6.614173,6.614173 0 0 0 13.228346,0 z"
           style="fill:none;stroke:#ff0000;stroke-width:0.5;stroke-dasharray:none;stroke-opacity:1"
           id="path3048" />
        <path
           d="m 282.51968,1096.063 a 6.614173,6.614173 0 0 0 -13.22834,0 6.614173,6.614173 0 0 0 13.22834,0 z"
           style="fill:none;stroke:#ff0000;stroke-width:0.5;stroke-dasharray:none;stroke-opacity:1"
           id="path3050" />
      </g>
    </g>
    <g
       id="g5654"
       transform="translate(-533682.13,4619628.1)">
      <g
         id="g5568"
         transform="matrix(10416.667,0,0,10416.667,779396.54,-6372584.5)"
         style="stroke:#ff0000;stroke-width:0.5;stroke-dasharray:none;stroke-opacity:1">
        <path
           d="M 291.02362,657.63779 H 0 a 11.338583,11.338583 0 0 0 -11.338583,11.33859 V 1111.1811 A 11.338583,11.338583 0 0 0 0,1122.5197 h 291.02362 a 11.338583,11.338583 0 0 0 11.33859,-11.3386 V 668.97638 a 11.338583,11.338583 0 0 0 -11.33859,-11.33859 z"
           style="fill:none;stroke:#ff0000;stroke-width:0.5;stroke-dasharray:none;stroke-opacity:1"
           id="path5556" />
        <path
           d="m 158.74016,706.77165 v 128.50394 a 11.338583,11.338583 0 0 1 -11.33859,11.33858 H 56.692913 A 11.338583,11.338583 0 0 1 45.354331,835.27559 V 706.77165 a 11.338583,11.338583 0 0 1 11.338582,-11.33858 h 90.708657 a 11.338583,11.338583 0 0 1 11.33859,11.33858 z"
           style="fill:none;stroke:#ff0000;stroke-width:0.5;stroke-dasharray:none;stroke-opacity:1"
           id="path5558" />
        <path
           d="m 21.732283,684.09449 a 6.614173,6.614173 0 0 0 -13.228346,0 6.614173,6.614173 0 0 0 13.228346,0 z"
           style="fill:none;stroke:#ff0000;stroke-width:0.5;stroke-dasharray:none;stroke-opacity:1"
           id="path5560" />
        <path
           d="m 282.51968,684.09449 a 6.614173,6.614173 0 0 0 -13.22834,0 6.614173,6.614173 0 0 0 13.22834,0 z"
           style="fill:none;stroke:#ff0000;stroke-width:0.5;stroke-dasharray:none;stroke-opacity:1"
           id="path5562" />
        <path
           d="m 21.732283,1096.063 a 6.614173,6.614173 0 0 0 -13.228346,0 6.614173,6.614173 0 0 0 13.228346,0 z"
           style="fill:none;stroke:#ff0000;stroke-width:0.5;stroke-dasharray:none;stroke-opacity:1"
           id="path5564" />
        <path
           d="m 282.51968,1096.063 a 6.614173,6.614173 0 0 0 -13.22834,0 6.614173,6.614173 0 0 0 13.22834,0 z"
           style="fill:none;stroke:#ff0000;stroke-width:0.5;stroke-dasharray:none;stroke-opacity:1"
           id="path5566" />
      </g>
      <g
         id="g5582"
         transform="matrix(10416.667,0,0,10416.667,4185099.5,-6372584.5)"
         style="stroke:#ff0000;stroke-width:0.5;stroke-dasharray:none;stroke-opacity:1">
        <path
           d="M 291.02362,657.63779 H 0 a 11.338583,11.338583 0 0 0 -11.338583,11.33859 V 1111.1811 A 11.338583,11.338583 0 0 0 0,1122.5197 h 291.02362 a 11.338583,11.338583 0 0 0 11.33859,-11.3386 V 668.97638 a 11.338583,11.338583 0 0 0 -11.33859,-11.33859 z"
           style="fill:none;stroke:#ff0000;stroke-width:0.5;stroke-dasharray:none;stroke-opacity:1"
           id="path5570" />
        <path
           d="m 158.74016,706.77165 v 128.50394 a 11.338583,11.338583 0 0 1 -11.33859,11.33858 H 56.692913 A 11.338583,11.338583 0 0 1 45.354331,835.27559 V 706.77165 a 11.338583,11.338583 0 0 1 11.338582,-11.33858 h 90.708657 a 11.338583,11.338583 0 0 1 11.33859,11.33858 z"
           style="fill:none;stroke:#ff0000;stroke-width:0.5;stroke-dasharray:none;stroke-opacity:1"
           id="path5572" />
        <path
           d="m 21.732283,684.09449 a 6.614173,6.614173 0 0 0 -13.228346,0 6.614173,6.614173 0 0 0 13.228346,0 z"
           style="fill:none;stroke:#ff0000;stroke-width:0.5;stroke-dasharray:none;stroke-opacity:1"
           id="path5574" />
        <path
           d="m 282.51968,684.09449 a 6.614173,6.614173 0 0 0 -13.22834,0 6.614173,6.614173 0 0 0 13.22834,0 z"
           style="fill:none;stroke:#ff0000;stroke-width:0.5;stroke-dasharray:none;stroke-opacity:1"
           id="path5576" />
        <path
           d="m 21.732283,1096.063 a 6.614173,6.614173 0 0 0 -13.228346,0 6.614173,6.614173 0 0 0 13.228346,0 z"
           style="fill:none;stroke:#ff0000;stroke-width:0.5;stroke-dasharray:none;stroke-opacity:1"
           id="path5578" />
        <path
           d="m 282.51968,1096.063 a 6.614173,6.614173 0 0 0 -13.22834,0 6.614173,6.614173 0 0 0 13.22834,0 z"
           style="fill:none;stroke:#ff0000;stroke-width:0.5;stroke-dasharray:none;stroke-opacity:1"
           id="path5580" />
      </g>
      <g
         id="g5596"
         transform="matrix(10416.667,0,0,10416.667,7588218.3,-6372584.5)"
         style="stroke:#ff0000;stroke-width:0.5;stroke-dasharray:none;stroke-opacity:1">
        <path
           d="M 291.02362,657.63779 H 0 a 11.338583,11.338583 0 0 0 -11.338583,11.33859 V 1111.1811 A 11.338583,11.338583 0 0 0 0,1122.5197 h 291.02362 a 11.338583,11.338583 0 0 0 11.33859,-11.3386 V 668.97638 a 11.338583,11.338583 0 0 0 -11.33859,-11.33859 z"
           style="fill:none;stroke:#ff0000;stroke-width:0.5;stroke-dasharray:none;stroke-opacity:1"
           id="path5584" />
        <path
           d="m 158.74016,706.77165 v 128.50394 a 11.338583,11.338583 0 0 1 -11.33859,11.33858 H 56.692913 A 11.338583,11.338583 0 0 1 45.354331,835.27559 V 706.77165 a 11.338583,11.338583 0 0 1 11.338582,-11.33858 h 90.708657 a 11.338583,11.338583 0 0 1 11.33859,11.33858 z"
           style="fill:none;stroke:#ff0000;stroke-width:0.5;stroke-dasharray:none;stroke-opacity:1"
           id="path5586" />
        <path
           d="m 21.732283,684.09449 a 6.614173,6.614173 0 0 0 -13.228346,0 6.614173,6.614173 0 0 0 13.228346,0 z"
           style="fill:none;stroke:#ff0000;stroke-width:0.5;stroke-dasharray:none;stroke-opacity:1"
           id="path5588" />
        <path
           d="m 282.51968,684.09449 a 6.614173,6.614173 0 0 0 -13.22834,0 6.614173,6.614173 0 0 0 13.22834,0 z"
           style="fill:none;stroke:#ff0000;stroke-width:0.5;stroke-dasharray:none;stroke-opacity:1"
           id="path5590" />
        <path
           d="m 21.732283,1096.063 a 6.614173,6.614173 0 0 0 -13.228346,0 6.614173,6.614173 0 0 0 13.228346,0 z"
           style="fill:none;stroke:#ff0000;stroke-width:0.5;stroke-dasharray:none;stroke-opacity:1"
           id="path5592" />
        <path
           d="m 282.51968,1096.063 a 6.614173,6.614173 0 0 0 -13.22834,0 6.614173,6.614173 0 0 0 13.22834,0 z"
           style="fill:none;stroke:#ff0000;stroke-width:0.5;stroke-dasharray:none;stroke-opacity:1"
           id="path5594" />
      </g>
      <g
         id="g5610"
         transform="matrix(10416.667,0,0,10416.667,10993921,-6372584.5)"
         style="stroke:#ff0000;stroke-width:0.5;stroke-dasharray:none;stroke-opacity:1">
        <path
           d="M 291.02362,657.63779 H 0 a 11.338583,11.338583 0 0 0 -11.338583,11.33859 V 1111.1811 A 11.338583,11.338583 0 0 0 0,1122.5197 h 291.02362 a 11.338583,11.338583 0 0 0 11.33859,-11.3386 V 668.97638 a 11.338583,11.338583 0 0 0 -11.33859,-11.33859 z"
           style="fill:none;stroke:#ff0000;stroke-width:0.5;stroke-dasharray:none;stroke-opacity:1"
           id="path5598" />
        <path
           d="m 158.74016,706.77165 v 128.50394 a 11.338583,11.338583 0 0 1 -11.33859,11.33858 H 56.692913 A 11.338583,11.338583 0 0 1 45.354331,835.27559 V 706.77165 a 11.338583,11.338583 0 0 1 11.338582,-11.33858 h 90.708657 a 11.338583,11.338583 0 0 1 11.33859,11.33858 z"
           style="fill:none;stroke:#ff0000;stroke-width:0.5;stroke-dasharray:none;stroke-opacity:1"
           id="path5600" />
        <path
           d="m 21.732283,684.09449 a 6.614173,6.614173 0 0 0 -13.228346,0 6.614173,6.614173 0 0 0 13.228346,0 z"
           style="fill:none;stroke:#ff0000;stroke-width:0.5;stroke-dasharray:none;stroke-opacity:1"
           id="path5602" />
        <path
           d="m 282.51968,684.09449 a 6.614173,6.614173 0 0 0 -13.22834,0 6.614173,6.614173 0 0 0 13.22834,0 z"
           style="fill:none;stroke:#ff0000;stroke-width:0.5;stroke-dasharray:none;stroke-opacity:1"
           id="path5604" />
        <path
           d="m 21.732283,1096.063 a 6.614173,6.614173 0 0 0 -13.228346,0 6.614173,6.614173 0 0 0 13.228346,0 z"
           style="fill:none;stroke:#ff0000;stroke-width:0.5;stroke-dasharray:none;stroke-opacity:1"
           id="path5606" />
        <path
           d="m 282.51968,1096.063 a 6.614173,6.614173 0 0 0 -13.22834,0 6.614173,6.614173 0 0 0 13.22834,0 z"
           style="fill:none;stroke:#ff0000;stroke-width:0.5;stroke-dasharray:none;stroke-opacity:1"
           id="path5608" />
      </g>
      <g
         id="g5624"
         transform="matrix(10416.667,0,0,10416.667,14395113,-6372584.5)"
         style="stroke:#ff0000;stroke-width:0.5;stroke-dasharray:none;stroke-opacity:1">
        <path
           d="M 291.02362,657.63779 H 0 a 11.338583,11.338583 0 0 0 -11.338583,11.33859 V 1111.1811 A 11.338583,11.338583 0 0 0 0,1122.5197 h 291.02362 a 11.338583,11.338583 0 0 0 11.33859,-11.3386 V 668.97638 a 11.338583,11.338583 0 0 0 -11.33859,-11.33859 z"
           style="fill:none;stroke:#ff0000;stroke-width:0.5;stroke-dasharray:none;stroke-opacity:1"
           id="path5612" />
        <path
           d="m 158.74016,706.77165 v 128.50394 a 11.338583,11.338583 0 0 1 -11.33859,11.33858 H 56.692913 A 11.338583,11.338583 0 0 1 45.354331,835.27559 V 706.77165 a 11.338583,11.338583 0 0 1 11.338582,-11.33858 h 90.708657 a 11.338583,11.338583 0 0 1 11.33859,11.33858 z"
           style="fill:none;stroke:#ff0000;stroke-width:0.5;stroke-dasharray:none;stroke-opacity:1"
           id="path5614" />
        <path
           d="m 21.732283,684.09449 a 6.614173,6.614173 0 0 0 -13.228346,0 6.614173,6.614173 0 0 0 13.228346,0 z"
           style="fill:none;stroke:#ff0000;stroke-width:0.5;stroke-dasharray:none;stroke-opacity:1"
           id="path5616" />
        <path
           d="m 282.51968,684.09449 a 6.614173,6.614173 0 0 0 -13.22834,0 6.614173,6.614173 0 0 0 13.22834,0 z"
           style="fill:none;stroke:#ff0000;stroke-width:0.5;stroke-dasharray:none;stroke-opacity:1"
           id="path5618" />
        <path
           d="m 21.732283,1096.063 a 6.614173,6.614173 0 0 0 -13.228346,0 6.614173,6.614173 0 0 0 13.228346,0 z"
           style="fill:none;stroke:#ff0000;stroke-width:0.5;stroke-dasharray:none;stroke-opacity:1"
           id="path5620" />
        <path
           d="m 282.51968,1096.063 a 6.614173,6.614173 0 0 0 -13.22834,0 6.614173,6.614173 0 0 0 13.22834,0 z"
           style="fill:none;stroke:#ff0000;stroke-width:0.5;stroke-dasharray:none;stroke-opacity:1"
           id="path5622" />
      </g>
      <g
         id="g5638"
         transform="matrix(10416.667,0,0,10416.667,17798232,-6372584.5)"
         style="stroke:#ff0000;stroke-width:0.5;stroke-dasharray:none;stroke-opacity:1">
        <path
           d="M 291.02362,657.63779 H 0 a 11.338583,11.338583 0 0 0 -11.338583,11.33859 V 1111.1811 A 11.338583,11.338583 0 0 0 0,1122.5197 h 291.02362 a 11.338583,11.338583 0 0 0 11.33859,-11.3386 V 668.97638 a 11.338583,11.338583 0 0 0 -11.33859,-11.33859 z"
           style="fill:none;stroke:#ff0000;stroke-width:0.5;stroke-dasharray:none;stroke-opacity:1"
           id="path5626" />
        <path
           d="m 158.74016,706.77165 v 128.50394 a 11.338583,11.338583 0 0 1 -11.33859,11.33858 H 56.692913 A 11.338583,11.338583 0 0 1 45.354331,835.27559 V 706.77165 a 11.338583,11.338583 0 0 1 11.338582,-11.33858 h 90.708657 a 11.338583,11.338583 0 0 1 11.33859,11.33858 z"
           style="fill:none;stroke:#ff0000;stroke-width:0.5;stroke-dasharray:none;stroke-opacity:1"
           id="path5628" />
        <path
           d="m 21.732283,684.09449 a 6.614173,6.614173 0 0 0 -13.228346,0 6.614173,6.614173 0 0 0 13.228346,0 z"
           style="fill:none;stroke:#ff0000;stroke-width:0.5;stroke-dasharray:none;stroke-opacity:1"
           id="path5630" />
        <path
           d="m 282.51968,684.09449 a 6.614173,6.614173 0 0 0 -13.22834,0 6.614173,6.614173 0 0 0 13.22834,0 z"
           style="fill:none;stroke:#ff0000;stroke-width:0.5;stroke-dasharray:none;stroke-opacity:1"
           id="path5632" />
        <path
           d="m 21.732283,1096.063 a 6.614173,6.614173 0 0 0 -13.228346,0 6.614173,6.614173 0 0 0 13.228346,0 z"
           style="fill:none;stroke:#ff0000;stroke-width:0.5;stroke-dasharray:none;stroke-opacity:1"
           id="path5634" />
        <path
           d="m 282.51968,1096.063 a 6.614173,6.614173 0 0 0 -13.22834,0 6.614173,6.614173 0 0 0 13.22834,0 z"
           style="fill:none;stroke:#ff0000;stroke-width:0.5;stroke-dasharray:none;stroke-opacity:1"
           id="path5636" />
      </g>
      <g
         id="g5652"
         transform="matrix(10416.667,0,0,10416.667,21203935,-6372584.5)"
         style="stroke:#ff0000;stroke-width:0.5;stroke-dasharray:none;stroke-opacity:1">
        <path
           d="M 291.02362,657.63779 H 0 a 11.338583,11.338583 0 0 0 -11.338583,11.33859 V 1111.1811 A 11.338583,11.338583 0 0 0 0,1122.5197 h 291.02362 a 11.338583,11.338583 0 0 0 11.33859,-11.3386 V 668.97638 a 11.338583,11.338583 0 0 0 -11.33859,-11.33859 z"
           style="fill:none;stroke:#ff0000;stroke-width:0.5;stroke-dasharray:none;stroke-opacity:1"
           id="path5640" />
        <path
           d="m 158.74016,706.77165 v 128.50394 a 11.338583,11.338583 0 0 1 -11.33859,11.33858 H 56.692913 A 11.338583,11.338583 0 0 1 45.354331,835.27559 V 706.77165 a 11.338583,11.338583 0 0 1 11.338582,-11.33858 h 90.708657 a 11.338583,11.338583 0 0 1 11.33859,11.33858 z"
           style="fill:none;stroke:#ff0000;stroke-width:0.5;stroke-dasharray:none;stroke-opacity:1"
           id="path5642" />
        <path
           d="m 21.732283,684.09449 a 6.614173,6.614173 0 0 0 -13.228346,0 6.614173,6.614173 0 0 0 13.228346,0 z"
           style="fill:none;stroke:#ff0000;stroke-width:0.5;stroke-dasharray:none;stroke-opacity:1"
           id="path5644" />
        <path
           d="m 282.51968,684.09449 a 6.614173,6.614173 0 0 0 -13.22834,0 6.614173,6.614173 0 0 0 13.22834,0 z"
           style="fill:none;stroke:#ff0000;stroke-width:0.5;stroke-dasharray:none;stroke-opacity:1"
           id="path5646" />
        <path
           d="m 21.732283,1096.063 a 6.614173,6.614173 0 0 0 -13.228346,0 6.614173,6.614173 0 0 0 13.228346,0 z"
           style="fill:none;stroke:#ff0000;stroke-width:0.5;stroke-dasharray:none;stroke-opacity:1"
           id="path5648" />
        <path
           d="m 282.51968,1096.063 a 6.614173,6.614173 0 0 0 -13.22834,0 6.614173,6.614173 0 0 0 13.22834,0 z"
           style="fill:none;stroke:#ff0000;stroke-width:0.5;stroke-dasharray:none;stroke-opacity:1"
           id="path5650" />
      </g>
    </g>
  </g>
</svg>
