<?xml version="1.0" encoding="UTF-8" standalone="no"?>
<svg
   viewBox="0 0 2304 1152"
   width="24in"
   height="12in"
   version="1.1"
   id="svg227"
   inkscape:version="1.2.1 (9c6d41e410, 2022-07-14)"
   sodipodi:docname="SensorModule.svg"
   xmlns:inkscape="http://www.inkscape.org/namespaces/inkscape"
   xmlns:sodipodi="http://sodipodi.sourceforge.net/DTD/sodipodi-0.dtd"
   xmlns="http://www.w3.org/2000/svg"
   xmlns:svg="http://www.w3.org/2000/svg">
  <sodipodi:namedview
     id="namedview229"
     pagecolor="#ffffff"
     bordercolor="#666666"
     borderopacity="1.0"
     inkscape:showpageshadow="2"
     inkscape:pageopacity="0.0"
     inkscape:pagecheckerboard="0"
     inkscape:deskcolor="#d1d1d1"
     showgrid="false"
     inkscape:zoom="0.25953042"
     inkscape:cx="1352.4426"
     inkscape:cy="504.75779"
     inkscape:window-width="1920"
     inkscape:window-height="1009"
     inkscape:window-x="-8"
     inkscape:window-y="-8"
     inkscape:window-maximized="1"
     inkscape:current-layer="g225"
     showguides="true"
     inkscape:document-units="in" />
  <desc
     id="desc182">CoverPlateAxibo.dxf - scale = 25.400000, origin = (0.000000, 0.000000), method = file</desc>
  <defs
     id="defs197">
    <marker
       id="DistanceX"
       orient="auto"
       refX="0"
       refY="0"
       style="overflow:visible">
      <path
         d="M 3,-3 -3,3 M 0,-5 V 5"
         style="stroke:#000000;stroke-width:0.5"
         id="path184" />
    </marker>
    <pattern
       id="Hatch"
       patternUnits="userSpaceOnUse"
       width="8"
       height="8"
       x="0"
       y="0">
      <path
         d="M8 4 l-4,4"
         stroke="#000000"
         stroke-width="0.25"
         linecap="square"
         id="path187" />
      <path
         d="M6 2 l-4,4"
         stroke="#000000"
         stroke-width="0.25"
         linecap="square"
         id="path189" />
      <path
         d="M4 0 l-4,4"
         stroke="#000000"
         stroke-width="0.25"
         linecap="square"
         id="path191" />
    </pattern>
    <symbol
       id="*Model_Space" />
    <symbol
       id="*Paper_Space" />
    <symbol
       id="*Paper_Space0" />
  </defs>
  <g
     inkscape:groupmode="layer"
     inkscape:label="0"
     id="g225">
    <g
       id="g6213">
      <g
         id="g368"
         transform="translate(23.588583,-637.66979)"
         style="stroke:#ff0000;stroke-width:0.5;stroke-dasharray:none;stroke-opacity:1">
        <path
           d="M 291.02362,657.63779 H 0 a 11.338583,11.338583 0 0 0 -11.338583,11.33859 v 442.20472"
           style="fill:none;stroke:#ff0000;stroke-width:0.5;stroke-dasharray:none;stroke-opacity:1"
           id="path199" />
        <path
           style="fill:none;stroke:#ff0000;stroke-width:0.5;stroke-dasharray:none;stroke-opacity:1"
           d="M 302.362,1111.18 V 668.976"
           id="path201" />
        <path
           style="fill:none;stroke:#ff0000;stroke-width:0.5;stroke-dasharray:none;stroke-opacity:1"
           d="M 0,1122.52 H 291.024"
           id="path203" />
        <path
           d="m 282.51968,1096.063 a 6.614173,6.614173 0 0 0 -13.22834,0 6.614173,6.614173 0 0 0 13.22834,0 z"
           style="fill:none;stroke:#ff0000;stroke-width:0.5;stroke-dasharray:none;stroke-opacity:1"
           id="path205" />
        <path
           d="m 21.732283,1096.063 a 6.614173,6.614173 0 0 0 -13.228346,0 6.614173,6.614173 0 0 0 13.228346,0 z"
           style="fill:none;stroke:#ff0000;stroke-width:0.5;stroke-dasharray:none;stroke-opacity:1"
           id="path207" />
        <path
           d="m 282.51968,684.09449 a 6.614173,6.614173 0 0 0 -13.22834,0 6.614173,6.614173 0 0 0 13.22834,0 z"
           style="fill:none;stroke:#ff0000;stroke-width:0.5;stroke-dasharray:none;stroke-opacity:1"
           id="path209" />
        <path
           d="m 21.732283,684.09449 a 6.614173,6.614173 0 0 0 -13.228346,0 6.614173,6.614173 0 0 0 13.228346,0 z"
           style="fill:none;stroke:#ff0000;stroke-width:0.5;stroke-dasharray:none;stroke-opacity:1"
           id="path211" />
        <path
           d="M 302.36221,668.97638 A 11.338583,11.338583 0 0 0 291.02362,657.63779"
           style="fill:none;stroke:#ff0000;stroke-width:0.5;stroke-dasharray:none;stroke-opacity:1"
           id="path215" />
        <path
           d="M -11.338583,1111.1811 A 11.338583,11.338583 0 0 0 0,1122.5197"
           style="fill:none;stroke:#ff0000;stroke-width:0.5;stroke-dasharray:none;stroke-opacity:1"
           id="path219" />
        <path
           d="m 291.02362,1122.5197 a 11.338583,11.338583 0 0 0 11.33859,-11.3386"
           style="fill:none;stroke:#ff0000;stroke-width:0.5;stroke-dasharray:none;stroke-opacity:1"
           id="path221" />
        <path
           d="m 28.346457,931.65354 a 13.228347,13.228347 0 0 0 -26.456693,0 13.228347,13.228347 0 0 0 26.456693,0 z"
           style="fill:none;stroke:#ff0000;stroke-width:0.5;stroke-dasharray:none;stroke-opacity:1"
           id="path223" />
      </g>
      <g
         id="g2838"
         transform="translate(350.53606,-637.66979)"
         style="stroke:#ff0000;stroke-width:0.5;stroke-dasharray:none;stroke-opacity:1">
        <path
           d="M 291.02362,657.63779 H 0 a 11.338583,11.338583 0 0 0 -11.338583,11.33859 v 442.20472"
           style="fill:none;stroke:#ff0000;stroke-width:0.5;stroke-dasharray:none;stroke-opacity:1"
           id="path2816" />
        <path
           style="fill:none;stroke:#ff0000;stroke-width:0.5;stroke-dasharray:none;stroke-opacity:1"
           d="M 302.362,1111.18 V 668.976"
           id="path2818" />
        <path
           style="fill:none;stroke:#ff0000;stroke-width:0.5;stroke-dasharray:none;stroke-opacity:1"
           d="M 0,1122.52 H 291.024"
           id="path2820" />
        <path
           d="m 282.51968,1096.063 a 6.614173,6.614173 0 0 0 -13.22834,0 6.614173,6.614173 0 0 0 13.22834,0 z"
           style="fill:none;stroke:#ff0000;stroke-width:0.5;stroke-dasharray:none;stroke-opacity:1"
           id="path2822" />
        <path
           d="m 21.732283,1096.063 a 6.614173,6.614173 0 0 0 -13.228346,0 6.614173,6.614173 0 0 0 13.228346,0 z"
           style="fill:none;stroke:#ff0000;stroke-width:0.5;stroke-dasharray:none;stroke-opacity:1"
           id="path2824" />
        <path
           d="m 282.51968,684.09449 a 6.614173,6.614173 0 0 0 -13.22834,0 6.614173,6.614173 0 0 0 13.22834,0 z"
           style="fill:none;stroke:#ff0000;stroke-width:0.5;stroke-dasharray:none;stroke-opacity:1"
           id="path2826" />
        <path
           d="m 21.732283,684.09449 a 6.614173,6.614173 0 0 0 -13.228346,0 6.614173,6.614173 0 0 0 13.228346,0 z"
           style="fill:none;stroke:#ff0000;stroke-width:0.5;stroke-dasharray:none;stroke-opacity:1"
           id="path2828" />
        <path
           d="M 302.36221,668.97638 A 11.338583,11.338583 0 0 0 291.02362,657.63779"
           style="fill:none;stroke:#ff0000;stroke-width:0.5;stroke-dasharray:none;stroke-opacity:1"
           id="path2830" />
        <path
           d="M -11.338583,1111.1811 A 11.338583,11.338583 0 0 0 0,1122.5197"
           style="fill:none;stroke:#ff0000;stroke-width:0.5;stroke-dasharray:none;stroke-opacity:1"
           id="path2832" />
        <path
           d="m 291.02362,1122.5197 a 11.338583,11.338583 0 0 0 11.33859,-11.3386"
           style="fill:none;stroke:#ff0000;stroke-width:0.5;stroke-dasharray:none;stroke-opacity:1"
           id="path2834" />
        <path
           d="m 28.346457,931.65354 a 13.228347,13.228347 0 0 0 -26.456693,0 13.228347,13.228347 0 0 0 26.456693,0 z"
           style="fill:none;stroke:#ff0000;stroke-width:0.5;stroke-dasharray:none;stroke-opacity:1"
           id="path2836" />
      </g>
      <g
         id="g2878"
         transform="translate(677.23545,-637.66979)"
         style="stroke:#ff0000;stroke-width:0.5;stroke-dasharray:none;stroke-opacity:1">
        <path
           d="M 291.02362,657.63779 H 0 a 11.338583,11.338583 0 0 0 -11.338583,11.33859 v 442.20472"
           style="fill:none;stroke:#ff0000;stroke-width:0.5;stroke-dasharray:none;stroke-opacity:1"
           id="path2856" />
        <path
           style="fill:none;stroke:#ff0000;stroke-width:0.5;stroke-dasharray:none;stroke-opacity:1"
           d="M 302.362,1111.18 V 668.976"
           id="path2858" />
        <path
           style="fill:none;stroke:#ff0000;stroke-width:0.5;stroke-dasharray:none;stroke-opacity:1"
           d="M 0,1122.52 H 291.024"
           id="path2860" />
        <path
           d="m 282.51968,1096.063 a 6.614173,6.614173 0 0 0 -13.22834,0 6.614173,6.614173 0 0 0 13.22834,0 z"
           style="fill:none;stroke:#ff0000;stroke-width:0.5;stroke-dasharray:none;stroke-opacity:1"
           id="path2862" />
        <path
           d="m 21.732283,1096.063 a 6.614173,6.614173 0 0 0 -13.228346,0 6.614173,6.614173 0 0 0 13.228346,0 z"
           style="fill:none;stroke:#ff0000;stroke-width:0.5;stroke-dasharray:none;stroke-opacity:1"
           id="path2864" />
        <path
           d="m 282.51968,684.09449 a 6.614173,6.614173 0 0 0 -13.22834,0 6.614173,6.614173 0 0 0 13.22834,0 z"
           style="fill:none;stroke:#ff0000;stroke-width:0.5;stroke-dasharray:none;stroke-opacity:1"
           id="path2866" />
        <path
           d="m 21.732283,684.09449 a 6.614173,6.614173 0 0 0 -13.228346,0 6.614173,6.614173 0 0 0 13.228346,0 z"
           style="fill:none;stroke:#ff0000;stroke-width:0.5;stroke-dasharray:none;stroke-opacity:1"
           id="path2868" />
        <path
           d="M 302.36221,668.97638 A 11.338583,11.338583 0 0 0 291.02362,657.63779"
           style="fill:none;stroke:#ff0000;stroke-width:0.5;stroke-dasharray:none;stroke-opacity:1"
           id="path2870" />
        <path
           d="M -11.338583,1111.1811 A 11.338583,11.338583 0 0 0 0,1122.5197"
           style="fill:none;stroke:#ff0000;stroke-width:0.5;stroke-dasharray:none;stroke-opacity:1"
           id="path2872" />
        <path
           d="m 291.02362,1122.5197 a 11.338583,11.338583 0 0 0 11.33859,-11.3386"
           style="fill:none;stroke:#ff0000;stroke-width:0.5;stroke-dasharray:none;stroke-opacity:1"
           id="path2874" />
        <path
           d="m 28.346457,931.65354 a 13.228347,13.228347 0 0 0 -26.456693,0 13.228347,13.228347 0 0 0 26.456693,0 z"
           style="fill:none;stroke:#ff0000;stroke-width:0.5;stroke-dasharray:none;stroke-opacity:1"
           id="path2876" />
      </g>
      <g
         id="g2918"
         transform="translate(1004.1829,-637.66979)"
         style="stroke:#ff0000;stroke-width:0.5;stroke-dasharray:none;stroke-opacity:1">
        <path
           d="M 291.02362,657.63779 H 0 a 11.338583,11.338583 0 0 0 -11.338583,11.33859 v 442.20472"
           style="fill:none;stroke:#ff0000;stroke-width:0.5;stroke-dasharray:none;stroke-opacity:1"
           id="path2896" />
        <path
           style="fill:none;stroke:#ff0000;stroke-width:0.5;stroke-dasharray:none;stroke-opacity:1"
           d="M 302.362,1111.18 V 668.976"
           id="path2898" />
        <path
           style="fill:none;stroke:#ff0000;stroke-width:0.5;stroke-dasharray:none;stroke-opacity:1"
           d="M 0,1122.52 H 291.024"
           id="path2900" />
        <path
           d="m 282.51968,1096.063 a 6.614173,6.614173 0 0 0 -13.22834,0 6.614173,6.614173 0 0 0 13.22834,0 z"
           style="fill:none;stroke:#ff0000;stroke-width:0.5;stroke-dasharray:none;stroke-opacity:1"
           id="path2902" />
        <path
           d="m 21.732283,1096.063 a 6.614173,6.614173 0 0 0 -13.228346,0 6.614173,6.614173 0 0 0 13.228346,0 z"
           style="fill:none;stroke:#ff0000;stroke-width:0.5;stroke-dasharray:none;stroke-opacity:1"
           id="path2904" />
        <path
           d="m 282.51968,684.09449 a 6.614173,6.614173 0 0 0 -13.22834,0 6.614173,6.614173 0 0 0 13.22834,0 z"
           style="fill:none;stroke:#ff0000;stroke-width:0.5;stroke-dasharray:none;stroke-opacity:1"
           id="path2906" />
        <path
           d="m 21.732283,684.09449 a 6.614173,6.614173 0 0 0 -13.228346,0 6.614173,6.614173 0 0 0 13.228346,0 z"
           style="fill:none;stroke:#ff0000;stroke-width:0.5;stroke-dasharray:none;stroke-opacity:1"
           id="path2908" />
        <path
           d="M 302.36221,668.97638 A 11.338583,11.338583 0 0 0 291.02362,657.63779"
           style="fill:none;stroke:#ff0000;stroke-width:0.5;stroke-dasharray:none;stroke-opacity:1"
           id="path2910" />
        <path
           d="M -11.338583,1111.1811 A 11.338583,11.338583 0 0 0 0,1122.5197"
           style="fill:none;stroke:#ff0000;stroke-width:0.5;stroke-dasharray:none;stroke-opacity:1"
           id="path2912" />
        <path
           d="m 291.02362,1122.5197 a 11.338583,11.338583 0 0 0 11.33859,-11.3386"
           style="fill:none;stroke:#ff0000;stroke-width:0.5;stroke-dasharray:none;stroke-opacity:1"
           id="path2914" />
        <path
           d="m 28.346457,931.65354 a 13.228347,13.228347 0 0 0 -26.456693,0 13.228347,13.228347 0 0 0 26.456693,0 z"
           style="fill:none;stroke:#ff0000;stroke-width:0.5;stroke-dasharray:none;stroke-opacity:1"
           id="path2916" />
      </g>
      <g
         id="g2958"
         transform="translate(1330.6973,-637.66979)"
         style="stroke:#ff0000;stroke-width:0.5;stroke-dasharray:none;stroke-opacity:1">
        <path
           d="M 291.02362,657.63779 H 0 a 11.338583,11.338583 0 0 0 -11.338583,11.33859 v 442.20472"
           style="fill:none;stroke:#ff0000;stroke-width:0.5;stroke-dasharray:none;stroke-opacity:1"
           id="path2936" />
        <path
           style="fill:none;stroke:#ff0000;stroke-width:0.5;stroke-dasharray:none;stroke-opacity:1"
           d="M 302.362,1111.18 V 668.976"
           id="path2938" />
        <path
           style="fill:none;stroke:#ff0000;stroke-width:0.5;stroke-dasharray:none;stroke-opacity:1"
           d="M 0,1122.52 H 291.024"
           id="path2940" />
        <path
           d="m 282.51968,1096.063 a 6.614173,6.614173 0 0 0 -13.22834,0 6.614173,6.614173 0 0 0 13.22834,0 z"
           style="fill:none;stroke:#ff0000;stroke-width:0.5;stroke-dasharray:none;stroke-opacity:1"
           id="path2942" />
        <path
           d="m 21.732283,1096.063 a 6.614173,6.614173 0 0 0 -13.228346,0 6.614173,6.614173 0 0 0 13.228346,0 z"
           style="fill:none;stroke:#ff0000;stroke-width:0.5;stroke-dasharray:none;stroke-opacity:1"
           id="path2944" />
        <path
           d="m 282.51968,684.09449 a 6.614173,6.614173 0 0 0 -13.22834,0 6.614173,6.614173 0 0 0 13.22834,0 z"
           style="fill:none;stroke:#ff0000;stroke-width:0.5;stroke-dasharray:none;stroke-opacity:1"
           id="path2946" />
        <path
           d="m 21.732283,684.09449 a 6.614173,6.614173 0 0 0 -13.228346,0 6.614173,6.614173 0 0 0 13.228346,0 z"
           style="fill:none;stroke:#ff0000;stroke-width:0.5;stroke-dasharray:none;stroke-opacity:1"
           id="path2948" />
        <path
           d="M 302.36221,668.97638 A 11.338583,11.338583 0 0 0 291.02362,657.63779"
           style="fill:none;stroke:#ff0000;stroke-width:0.5;stroke-dasharray:none;stroke-opacity:1"
           id="path2950" />
        <path
           d="M -11.338583,1111.1811 A 11.338583,11.338583 0 0 0 0,1122.5197"
           style="fill:none;stroke:#ff0000;stroke-width:0.5;stroke-dasharray:none;stroke-opacity:1"
           id="path2952" />
        <path
           d="m 291.02362,1122.5197 a 11.338583,11.338583 0 0 0 11.33859,-11.3386"
           style="fill:none;stroke:#ff0000;stroke-width:0.5;stroke-dasharray:none;stroke-opacity:1"
           id="path2954" />
        <path
           d="m 28.346457,931.65354 a 13.228347,13.228347 0 0 0 -26.456693,0 13.228347,13.228347 0 0 0 26.456693,0 z"
           style="fill:none;stroke:#ff0000;stroke-width:0.5;stroke-dasharray:none;stroke-opacity:1"
           id="path2956" />
      </g>
      <g
         id="g2998"
         transform="translate(1657.3967,-637.66979)"
         style="stroke:#ff0000;stroke-width:0.5;stroke-dasharray:none;stroke-opacity:1">
        <path
           d="M 291.02362,657.63779 H 0 a 11.338583,11.338583 0 0 0 -11.338583,11.33859 v 442.20472"
           style="fill:none;stroke:#ff0000;stroke-width:0.5;stroke-dasharray:none;stroke-opacity:1"
           id="path2976" />
        <path
           style="fill:none;stroke:#ff0000;stroke-width:0.5;stroke-dasharray:none;stroke-opacity:1"
           d="M 302.362,1111.18 V 668.976"
           id="path2978" />
        <path
           style="fill:none;stroke:#ff0000;stroke-width:0.5;stroke-dasharray:none;stroke-opacity:1"
           d="M 0,1122.52 H 291.024"
           id="path2980" />
        <path
           d="m 282.51968,1096.063 a 6.614173,6.614173 0 0 0 -13.22834,0 6.614173,6.614173 0 0 0 13.22834,0 z"
           style="fill:none;stroke:#ff0000;stroke-width:0.5;stroke-dasharray:none;stroke-opacity:1"
           id="path2982" />
        <path
           d="m 21.732283,1096.063 a 6.614173,6.614173 0 0 0 -13.228346,0 6.614173,6.614173 0 0 0 13.228346,0 z"
           style="fill:none;stroke:#ff0000;stroke-width:0.5;stroke-dasharray:none;stroke-opacity:1"
           id="path2984" />
        <path
           d="m 282.51968,684.09449 a 6.614173,6.614173 0 0 0 -13.22834,0 6.614173,6.614173 0 0 0 13.22834,0 z"
           style="fill:none;stroke:#ff0000;stroke-width:0.5;stroke-dasharray:none;stroke-opacity:1"
           id="path2986" />
        <path
           d="m 21.732283,684.09449 a 6.614173,6.614173 0 0 0 -13.228346,0 6.614173,6.614173 0 0 0 13.228346,0 z"
           style="fill:none;stroke:#ff0000;stroke-width:0.5;stroke-dasharray:none;stroke-opacity:1"
           id="path2988" />
        <path
           d="M 302.36221,668.97638 A 11.338583,11.338583 0 0 0 291.02362,657.63779"
           style="fill:none;stroke:#ff0000;stroke-width:0.5;stroke-dasharray:none;stroke-opacity:1"
           id="path2990" />
        <path
           d="M -11.338583,1111.1811 A 11.338583,11.338583 0 0 0 0,1122.5197"
           style="fill:none;stroke:#ff0000;stroke-width:0.5;stroke-dasharray:none;stroke-opacity:1"
           id="path2992" />
        <path
           d="m 291.02362,1122.5197 a 11.338583,11.338583 0 0 0 11.33859,-11.3386"
           style="fill:none;stroke:#ff0000;stroke-width:0.5;stroke-dasharray:none;stroke-opacity:1"
           id="path2994" />
        <path
           d="m 28.346457,931.65354 a 13.228347,13.228347 0 0 0 -26.456693,0 13.228347,13.228347 0 0 0 26.456693,0 z"
           style="fill:none;stroke:#ff0000;stroke-width:0.5;stroke-dasharray:none;stroke-opacity:1"
           id="path2996" />
      </g>
      <g
         id="g3038"
         transform="translate(1984.3442,-637.66979)"
         style="stroke:#ff0000;stroke-width:0.5;stroke-dasharray:none;stroke-opacity:1">
        <path
           d="M 291.02362,657.63779 H 0 a 11.338583,11.338583 0 0 0 -11.338583,11.33859 v 442.20472"
           style="fill:none;stroke:#ff0000;stroke-width:0.5;stroke-dasharray:none;stroke-opacity:1"
           id="path3016" />
        <path
           style="fill:none;stroke:#ff0000;stroke-width:0.5;stroke-dasharray:none;stroke-opacity:1"
           d="M 302.362,1111.18 V 668.976"
           id="path3018" />
        <path
           style="fill:none;stroke:#ff0000;stroke-width:0.5;stroke-dasharray:none;stroke-opacity:1"
           d="M 0,1122.52 H 291.024"
           id="path3020" />
        <path
           d="m 282.51968,1096.063 a 6.614173,6.614173 0 0 0 -13.22834,0 6.614173,6.614173 0 0 0 13.22834,0 z"
           style="fill:none;stroke:#ff0000;stroke-width:0.5;stroke-dasharray:none;stroke-opacity:1"
           id="path3022" />
        <path
           d="m 21.732283,1096.063 a 6.614173,6.614173 0 0 0 -13.228346,0 6.614173,6.614173 0 0 0 13.228346,0 z"
           style="fill:none;stroke:#ff0000;stroke-width:0.5;stroke-dasharray:none;stroke-opacity:1"
           id="path3024" />
        <path
           d="m 282.51968,684.09449 a 6.614173,6.614173 0 0 0 -13.22834,0 6.614173,6.614173 0 0 0 13.22834,0 z"
           style="fill:none;stroke:#ff0000;stroke-width:0.5;stroke-dasharray:none;stroke-opacity:1"
           id="path3026" />
        <path
           d="m 21.732283,684.09449 a 6.614173,6.614173 0 0 0 -13.228346,0 6.614173,6.614173 0 0 0 13.228346,0 z"
           style="fill:none;stroke:#ff0000;stroke-width:0.5;stroke-dasharray:none;stroke-opacity:1"
           id="path3028" />
        <path
           d="M 302.36221,668.97638 A 11.338583,11.338583 0 0 0 291.02362,657.63779"
           style="fill:none;stroke:#ff0000;stroke-width:0.5;stroke-dasharray:none;stroke-opacity:1"
           id="path3030" />
        <path
           d="M -11.338583,1111.1811 A 11.338583,11.338583 0 0 0 0,1122.5197"
           style="fill:none;stroke:#ff0000;stroke-width:0.5;stroke-dasharray:none;stroke-opacity:1"
           id="path3032" />
        <path
           d="m 291.02362,1122.5197 a 11.338583,11.338583 0 0 0 11.33859,-11.3386"
           style="fill:none;stroke:#ff0000;stroke-width:0.5;stroke-dasharray:none;stroke-opacity:1"
           id="path3034" />
        <path
           d="m 28.346457,931.65354 a 13.228347,13.228347 0 0 0 -26.456693,0 13.228347,13.228347 0 0 0 26.456693,0 z"
           style="fill:none;stroke:#ff0000;stroke-width:0.5;stroke-dasharray:none;stroke-opacity:1"
           id="path3036" />
      </g>
    </g>
    <rect
       style="fill:#e2e2e2;fill-opacity:1;stroke:none;stroke-width:0.5;stroke-linecap:round;stroke-dasharray:none;stroke-opacity:1;paint-order:stroke fill markers"
       id="rect2779"
       width="12"
       height="1151.5"
       x="0"
       y="0"
       ry="6.9603701" />
    <rect
       style="fill:#e2e2e2;fill-opacity:1;stroke:none;stroke-width:0.5;stroke-linecap:round;stroke-dasharray:none;stroke-opacity:1;paint-order:stroke fill markers"
       id="rect2854"
       width="12"
       height="1151.5"
       x="326.94748"
       y="0"
       ry="6.9603701" />
    <rect
       style="fill:#e2e2e2;fill-opacity:1;stroke:none;stroke-width:0.5;stroke-linecap:round;stroke-dasharray:none;stroke-opacity:1;paint-order:stroke fill markers"
       id="rect2894"
       width="12"
       height="1151.5"
       x="653.64691"
       y="0"
       ry="6.9603701" />
    <rect
       style="fill:#e2e2e2;fill-opacity:1;stroke:none;stroke-width:0.5;stroke-linecap:round;stroke-dasharray:none;stroke-opacity:1;paint-order:stroke fill markers"
       id="rect2934"
       width="12"
       height="1151.5"
       x="980.59436"
       y="0"
       ry="6.9603701" />
    <rect
       style="fill:#e2e2e2;fill-opacity:1;stroke:none;stroke-width:0.5;stroke-linecap:round;stroke-dasharray:none;stroke-opacity:1;paint-order:stroke fill markers"
       id="rect2974"
       width="12"
       height="1151.5"
       x="1307.1086"
       y="0"
       ry="6.9603701" />
    <rect
       style="fill:#e2e2e2;fill-opacity:1;stroke:none;stroke-width:0.5;stroke-linecap:round;stroke-dasharray:none;stroke-opacity:1;paint-order:stroke fill markers"
       id="rect3014"
       width="12"
       height="1151.5"
       x="1633.8081"
       y="0"
       ry="6.9603701" />
    <rect
       style="fill:#e2e2e2;fill-opacity:1;stroke:none;stroke-width:0.5;stroke-linecap:round;stroke-dasharray:none;stroke-opacity:1;paint-order:stroke fill markers"
       id="rect3054"
       width="12"
       height="1151.5"
       x="1960.7556"
       y="0"
       ry="6.9603701" />
    <g
       id="g6383"
       transform="translate(0,484.97208)">
      <g
         id="g6237"
         transform="translate(23.588583,-637.66979)"
         style="stroke:#ff0000;stroke-width:0.5;stroke-dasharray:none;stroke-opacity:1">
        <path
           d="M 291.02362,657.63779 H 0 a 11.338583,11.338583 0 0 0 -11.338583,11.33859 v 442.20472"
           style="fill:none;stroke:#ff0000;stroke-width:0.5;stroke-dasharray:none;stroke-opacity:1"
           id="path6215" />
        <path
           style="fill:none;stroke:#ff0000;stroke-width:0.5;stroke-dasharray:none;stroke-opacity:1"
           d="M 302.362,1111.18 V 668.976"
           id="path6217" />
        <path
           style="fill:none;stroke:#ff0000;stroke-width:0.5;stroke-dasharray:none;stroke-opacity:1"
           d="M 0,1122.52 H 291.024"
           id="path6219" />
        <path
           d="m 282.51968,1096.063 a 6.614173,6.614173 0 0 0 -13.22834,0 6.614173,6.614173 0 0 0 13.22834,0 z"
           style="fill:none;stroke:#ff0000;stroke-width:0.5;stroke-dasharray:none;stroke-opacity:1"
           id="path6221" />
        <path
           d="m 21.732283,1096.063 a 6.614173,6.614173 0 0 0 -13.228346,0 6.614173,6.614173 0 0 0 13.228346,0 z"
           style="fill:none;stroke:#ff0000;stroke-width:0.5;stroke-dasharray:none;stroke-opacity:1"
           id="path6223" />
        <path
           d="m 282.51968,684.09449 a 6.614173,6.614173 0 0 0 -13.22834,0 6.614173,6.614173 0 0 0 13.22834,0 z"
           style="fill:none;stroke:#ff0000;stroke-width:0.5;stroke-dasharray:none;stroke-opacity:1"
           id="path6225" />
        <path
           d="m 21.732283,684.09449 a 6.614173,6.614173 0 0 0 -13.228346,0 6.614173,6.614173 0 0 0 13.228346,0 z"
           style="fill:none;stroke:#ff0000;stroke-width:0.5;stroke-dasharray:none;stroke-opacity:1"
           id="path6227" />
        <path
           d="M 302.36221,668.97638 A 11.338583,11.338583 0 0 0 291.02362,657.63779"
           style="fill:none;stroke:#ff0000;stroke-width:0.5;stroke-dasharray:none;stroke-opacity:1"
           id="path6229" />
        <path
           d="M -11.338583,1111.1811 A 11.338583,11.338583 0 0 0 0,1122.5197"
           style="fill:none;stroke:#ff0000;stroke-width:0.5;stroke-dasharray:none;stroke-opacity:1"
           id="path6231" />
        <path
           d="m 291.02362,1122.5197 a 11.338583,11.338583 0 0 0 11.33859,-11.3386"
           style="fill:none;stroke:#ff0000;stroke-width:0.5;stroke-dasharray:none;stroke-opacity:1"
           id="path6233" />
        <path
           d="m 28.346457,931.65354 a 13.228347,13.228347 0 0 0 -26.456693,0 13.228347,13.228347 0 0 0 26.456693,0 z"
           style="fill:none;stroke:#ff0000;stroke-width:0.5;stroke-dasharray:none;stroke-opacity:1"
           id="path6235" />
      </g>
      <g
         id="g6261"
         transform="translate(350.53606,-637.66979)"
         style="stroke:#ff0000;stroke-width:0.5;stroke-dasharray:none;stroke-opacity:1">
        <path
           d="M 291.02362,657.63779 H 0 a 11.338583,11.338583 0 0 0 -11.338583,11.33859 v 442.20472"
           style="fill:none;stroke:#ff0000;stroke-width:0.5;stroke-dasharray:none;stroke-opacity:1"
           id="path6239" />
        <path
           style="fill:none;stroke:#ff0000;stroke-width:0.5;stroke-dasharray:none;stroke-opacity:1"
           d="M 302.362,1111.18 V 668.976"
           id="path6241" />
        <path
           style="fill:none;stroke:#ff0000;stroke-width:0.5;stroke-dasharray:none;stroke-opacity:1"
           d="M 0,1122.52 H 291.024"
           id="path6243" />
        <path
           d="m 282.51968,1096.063 a 6.614173,6.614173 0 0 0 -13.22834,0 6.614173,6.614173 0 0 0 13.22834,0 z"
           style="fill:none;stroke:#ff0000;stroke-width:0.5;stroke-dasharray:none;stroke-opacity:1"
           id="path6245" />
        <path
           d="m 21.732283,1096.063 a 6.614173,6.614173 0 0 0 -13.228346,0 6.614173,6.614173 0 0 0 13.228346,0 z"
           style="fill:none;stroke:#ff0000;stroke-width:0.5;stroke-dasharray:none;stroke-opacity:1"
           id="path6247" />
        <path
           d="m 282.51968,684.09449 a 6.614173,6.614173 0 0 0 -13.22834,0 6.614173,6.614173 0 0 0 13.22834,0 z"
           style="fill:none;stroke:#ff0000;stroke-width:0.5;stroke-dasharray:none;stroke-opacity:1"
           id="path6249" />
        <path
           d="m 21.732283,684.09449 a 6.614173,6.614173 0 0 0 -13.228346,0 6.614173,6.614173 0 0 0 13.228346,0 z"
           style="fill:none;stroke:#ff0000;stroke-width:0.5;stroke-dasharray:none;stroke-opacity:1"
           id="path6251" />
        <path
           d="M 302.36221,668.97638 A 11.338583,11.338583 0 0 0 291.02362,657.63779"
           style="fill:none;stroke:#ff0000;stroke-width:0.5;stroke-dasharray:none;stroke-opacity:1"
           id="path6253" />
        <path
           d="M -11.338583,1111.1811 A 11.338583,11.338583 0 0 0 0,1122.5197"
           style="fill:none;stroke:#ff0000;stroke-width:0.5;stroke-dasharray:none;stroke-opacity:1"
           id="path6255" />
        <path
           d="m 291.02362,1122.5197 a 11.338583,11.338583 0 0 0 11.33859,-11.3386"
           style="fill:none;stroke:#ff0000;stroke-width:0.5;stroke-dasharray:none;stroke-opacity:1"
           id="path6257" />
        <path
           d="m 28.346457,931.65354 a 13.228347,13.228347 0 0 0 -26.456693,0 13.228347,13.228347 0 0 0 26.456693,0 z"
           style="fill:none;stroke:#ff0000;stroke-width:0.5;stroke-dasharray:none;stroke-opacity:1"
           id="path6259" />
      </g>
      <g
         id="g6285"
         transform="translate(677.23545,-637.66979)"
         style="stroke:#ff0000;stroke-width:0.5;stroke-dasharray:none;stroke-opacity:1">
        <path
           d="M 291.02362,657.63779 H 0 a 11.338583,11.338583 0 0 0 -11.338583,11.33859 v 442.20472"
           style="fill:none;stroke:#ff0000;stroke-width:0.5;stroke-dasharray:none;stroke-opacity:1"
           id="path6263" />
        <path
           style="fill:none;stroke:#ff0000;stroke-width:0.5;stroke-dasharray:none;stroke-opacity:1"
           d="M 302.362,1111.18 V 668.976"
           id="path6265" />
        <path
           style="fill:none;stroke:#ff0000;stroke-width:0.5;stroke-dasharray:none;stroke-opacity:1"
           d="M 0,1122.52 H 291.024"
           id="path6267" />
        <path
           d="m 282.51968,1096.063 a 6.614173,6.614173 0 0 0 -13.22834,0 6.614173,6.614173 0 0 0 13.22834,0 z"
           style="fill:none;stroke:#ff0000;stroke-width:0.5;stroke-dasharray:none;stroke-opacity:1"
           id="path6269" />
        <path
           d="m 21.732283,1096.063 a 6.614173,6.614173 0 0 0 -13.228346,0 6.614173,6.614173 0 0 0 13.228346,0 z"
           style="fill:none;stroke:#ff0000;stroke-width:0.5;stroke-dasharray:none;stroke-opacity:1"
           id="path6271" />
        <path
           d="m 282.51968,684.09449 a 6.614173,6.614173 0 0 0 -13.22834,0 6.614173,6.614173 0 0 0 13.22834,0 z"
           style="fill:none;stroke:#ff0000;stroke-width:0.5;stroke-dasharray:none;stroke-opacity:1"
           id="path6273" />
        <path
           d="m 21.732283,684.09449 a 6.614173,6.614173 0 0 0 -13.228346,0 6.614173,6.614173 0 0 0 13.228346,0 z"
           style="fill:none;stroke:#ff0000;stroke-width:0.5;stroke-dasharray:none;stroke-opacity:1"
           id="path6275" />
        <path
           d="M 302.36221,668.97638 A 11.338583,11.338583 0 0 0 291.02362,657.63779"
           style="fill:none;stroke:#ff0000;stroke-width:0.5;stroke-dasharray:none;stroke-opacity:1"
           id="path6277" />
        <path
           d="M -11.338583,1111.1811 A 11.338583,11.338583 0 0 0 0,1122.5197"
           style="fill:none;stroke:#ff0000;stroke-width:0.5;stroke-dasharray:none;stroke-opacity:1"
           id="path6279" />
        <path
           d="m 291.02362,1122.5197 a 11.338583,11.338583 0 0 0 11.33859,-11.3386"
           style="fill:none;stroke:#ff0000;stroke-width:0.5;stroke-dasharray:none;stroke-opacity:1"
           id="path6281" />
        <path
           d="m 28.346457,931.65354 a 13.228347,13.228347 0 0 0 -26.456693,0 13.228347,13.228347 0 0 0 26.456693,0 z"
           style="fill:none;stroke:#ff0000;stroke-width:0.5;stroke-dasharray:none;stroke-opacity:1"
           id="path6283" />
      </g>
      <g
         id="g6309"
         transform="translate(1004.1829,-637.66979)"
         style="stroke:#ff0000;stroke-width:0.5;stroke-dasharray:none;stroke-opacity:1">
        <path
           d="M 291.02362,657.63779 H 0 a 11.338583,11.338583 0 0 0 -11.338583,11.33859 v 442.20472"
           style="fill:none;stroke:#ff0000;stroke-width:0.5;stroke-dasharray:none;stroke-opacity:1"
           id="path6287" />
        <path
           style="fill:none;stroke:#ff0000;stroke-width:0.5;stroke-dasharray:none;stroke-opacity:1"
           d="M 302.362,1111.18 V 668.976"
           id="path6289" />
        <path
           style="fill:none;stroke:#ff0000;stroke-width:0.5;stroke-dasharray:none;stroke-opacity:1"
           d="M 0,1122.52 H 291.024"
           id="path6291" />
        <path
           d="m 282.51968,1096.063 a 6.614173,6.614173 0 0 0 -13.22834,0 6.614173,6.614173 0 0 0 13.22834,0 z"
           style="fill:none;stroke:#ff0000;stroke-width:0.5;stroke-dasharray:none;stroke-opacity:1"
           id="path6293" />
        <path
           d="m 21.732283,1096.063 a 6.614173,6.614173 0 0 0 -13.228346,0 6.614173,6.614173 0 0 0 13.228346,0 z"
           style="fill:none;stroke:#ff0000;stroke-width:0.5;stroke-dasharray:none;stroke-opacity:1"
           id="path6295" />
        <path
           d="m 282.51968,684.09449 a 6.614173,6.614173 0 0 0 -13.22834,0 6.614173,6.614173 0 0 0 13.22834,0 z"
           style="fill:none;stroke:#ff0000;stroke-width:0.5;stroke-dasharray:none;stroke-opacity:1"
           id="path6297" />
        <path
           d="m 21.732283,684.09449 a 6.614173,6.614173 0 0 0 -13.228346,0 6.614173,6.614173 0 0 0 13.228346,0 z"
           style="fill:none;stroke:#ff0000;stroke-width:0.5;stroke-dasharray:none;stroke-opacity:1"
           id="path6299" />
        <path
           d="M 302.36221,668.97638 A 11.338583,11.338583 0 0 0 291.02362,657.63779"
           style="fill:none;stroke:#ff0000;stroke-width:0.5;stroke-dasharray:none;stroke-opacity:1"
           id="path6301" />
        <path
           d="M -11.338583,1111.1811 A 11.338583,11.338583 0 0 0 0,1122.5197"
           style="fill:none;stroke:#ff0000;stroke-width:0.5;stroke-dasharray:none;stroke-opacity:1"
           id="path6303" />
        <path
           d="m 291.02362,1122.5197 a 11.338583,11.338583 0 0 0 11.33859,-11.3386"
           style="fill:none;stroke:#ff0000;stroke-width:0.5;stroke-dasharray:none;stroke-opacity:1"
           id="path6305" />
        <path
           d="m 28.346457,931.65354 a 13.228347,13.228347 0 0 0 -26.456693,0 13.228347,13.228347 0 0 0 26.456693,0 z"
           style="fill:none;stroke:#ff0000;stroke-width:0.5;stroke-dasharray:none;stroke-opacity:1"
           id="path6307" />
      </g>
      <g
         id="g6333"
         transform="translate(1330.6973,-637.66979)"
         style="stroke:#ff0000;stroke-width:0.5;stroke-dasharray:none;stroke-opacity:1">
        <path
           d="M 291.02362,657.63779 H 0 a 11.338583,11.338583 0 0 0 -11.338583,11.33859 v 442.20472"
           style="fill:none;stroke:#ff0000;stroke-width:0.5;stroke-dasharray:none;stroke-opacity:1"
           id="path6311" />
        <path
           style="fill:none;stroke:#ff0000;stroke-width:0.5;stroke-dasharray:none;stroke-opacity:1"
           d="M 302.362,1111.18 V 668.976"
           id="path6313" />
        <path
           style="fill:none;stroke:#ff0000;stroke-width:0.5;stroke-dasharray:none;stroke-opacity:1"
           d="M 0,1122.52 H 291.024"
           id="path6315" />
        <path
           d="m 282.51968,1096.063 a 6.614173,6.614173 0 0 0 -13.22834,0 6.614173,6.614173 0 0 0 13.22834,0 z"
           style="fill:none;stroke:#ff0000;stroke-width:0.5;stroke-dasharray:none;stroke-opacity:1"
           id="path6317" />
        <path
           d="m 21.732283,1096.063 a 6.614173,6.614173 0 0 0 -13.228346,0 6.614173,6.614173 0 0 0 13.228346,0 z"
           style="fill:none;stroke:#ff0000;stroke-width:0.5;stroke-dasharray:none;stroke-opacity:1"
           id="path6319" />
        <path
           d="m 282.51968,684.09449 a 6.614173,6.614173 0 0 0 -13.22834,0 6.614173,6.614173 0 0 0 13.22834,0 z"
           style="fill:none;stroke:#ff0000;stroke-width:0.5;stroke-dasharray:none;stroke-opacity:1"
           id="path6321" />
        <path
           d="m 21.732283,684.09449 a 6.614173,6.614173 0 0 0 -13.228346,0 6.614173,6.614173 0 0 0 13.228346,0 z"
           style="fill:none;stroke:#ff0000;stroke-width:0.5;stroke-dasharray:none;stroke-opacity:1"
           id="path6323" />
        <path
           d="M 302.36221,668.97638 A 11.338583,11.338583 0 0 0 291.02362,657.63779"
           style="fill:none;stroke:#ff0000;stroke-width:0.5;stroke-dasharray:none;stroke-opacity:1"
           id="path6325" />
        <path
           d="M -11.338583,1111.1811 A 11.338583,11.338583 0 0 0 0,1122.5197"
           style="fill:none;stroke:#ff0000;stroke-width:0.5;stroke-dasharray:none;stroke-opacity:1"
           id="path6327" />
        <path
           d="m 291.02362,1122.5197 a 11.338583,11.338583 0 0 0 11.33859,-11.3386"
           style="fill:none;stroke:#ff0000;stroke-width:0.5;stroke-dasharray:none;stroke-opacity:1"
           id="path6329" />
        <path
           d="m 28.346457,931.65354 a 13.228347,13.228347 0 0 0 -26.456693,0 13.228347,13.228347 0 0 0 26.456693,0 z"
           style="fill:none;stroke:#ff0000;stroke-width:0.5;stroke-dasharray:none;stroke-opacity:1"
           id="path6331" />
      </g>
      <g
         id="g6357"
         transform="translate(1657.3967,-637.66979)"
         style="stroke:#ff0000;stroke-width:0.5;stroke-dasharray:none;stroke-opacity:1">
        <path
           d="M 291.02362,657.63779 H 0 a 11.338583,11.338583 0 0 0 -11.338583,11.33859 v 442.20472"
           style="fill:none;stroke:#ff0000;stroke-width:0.5;stroke-dasharray:none;stroke-opacity:1"
           id="path6335" />
        <path
           style="fill:none;stroke:#ff0000;stroke-width:0.5;stroke-dasharray:none;stroke-opacity:1"
           d="M 302.362,1111.18 V 668.976"
           id="path6337" />
        <path
           style="fill:none;stroke:#ff0000;stroke-width:0.5;stroke-dasharray:none;stroke-opacity:1"
           d="M 0,1122.52 H 291.024"
           id="path6339" />
        <path
           d="m 282.51968,1096.063 a 6.614173,6.614173 0 0 0 -13.22834,0 6.614173,6.614173 0 0 0 13.22834,0 z"
           style="fill:none;stroke:#ff0000;stroke-width:0.5;stroke-dasharray:none;stroke-opacity:1"
           id="path6341" />
        <path
           d="m 21.732283,1096.063 a 6.614173,6.614173 0 0 0 -13.228346,0 6.614173,6.614173 0 0 0 13.228346,0 z"
           style="fill:none;stroke:#ff0000;stroke-width:0.5;stroke-dasharray:none;stroke-opacity:1"
           id="path6343" />
        <path
           d="m 282.51968,684.09449 a 6.614173,6.614173 0 0 0 -13.22834,0 6.614173,6.614173 0 0 0 13.22834,0 z"
           style="fill:none;stroke:#ff0000;stroke-width:0.5;stroke-dasharray:none;stroke-opacity:1"
           id="path6345" />
        <path
           d="m 21.732283,684.09449 a 6.614173,6.614173 0 0 0 -13.228346,0 6.614173,6.614173 0 0 0 13.228346,0 z"
           style="fill:none;stroke:#ff0000;stroke-width:0.5;stroke-dasharray:none;stroke-opacity:1"
           id="path6347" />
        <path
           d="M 302.36221,668.97638 A 11.338583,11.338583 0 0 0 291.02362,657.63779"
           style="fill:none;stroke:#ff0000;stroke-width:0.5;stroke-dasharray:none;stroke-opacity:1"
           id="path6349" />
        <path
           d="M -11.338583,1111.1811 A 11.338583,11.338583 0 0 0 0,1122.5197"
           style="fill:none;stroke:#ff0000;stroke-width:0.5;stroke-dasharray:none;stroke-opacity:1"
           id="path6351" />
        <path
           d="m 291.02362,1122.5197 a 11.338583,11.338583 0 0 0 11.33859,-11.3386"
           style="fill:none;stroke:#ff0000;stroke-width:0.5;stroke-dasharray:none;stroke-opacity:1"
           id="path6353" />
        <path
           d="m 28.346457,931.65354 a 13.228347,13.228347 0 0 0 -26.456693,0 13.228347,13.228347 0 0 0 26.456693,0 z"
           style="fill:none;stroke:#ff0000;stroke-width:0.5;stroke-dasharray:none;stroke-opacity:1"
           id="path6355" />
      </g>
      <g
         id="g6381"
         transform="translate(1984.3442,-637.66979)"
         style="stroke:#ff0000;stroke-width:0.5;stroke-dasharray:none;stroke-opacity:1">
        <path
           d="M 291.02362,657.63779 H 0 a 11.338583,11.338583 0 0 0 -11.338583,11.33859 v 442.20472"
           style="fill:none;stroke:#ff0000;stroke-width:0.5;stroke-dasharray:none;stroke-opacity:1"
           id="path6359" />
        <path
           style="fill:none;stroke:#ff0000;stroke-width:0.5;stroke-dasharray:none;stroke-opacity:1"
           d="M 302.362,1111.18 V 668.976"
           id="path6361" />
        <path
           style="fill:none;stroke:#ff0000;stroke-width:0.5;stroke-dasharray:none;stroke-opacity:1"
           d="M 0,1122.52 H 291.024"
           id="path6363" />
        <path
           d="m 282.51968,1096.063 a 6.614173,6.614173 0 0 0 -13.22834,0 6.614173,6.614173 0 0 0 13.22834,0 z"
           style="fill:none;stroke:#ff0000;stroke-width:0.5;stroke-dasharray:none;stroke-opacity:1"
           id="path6365" />
        <path
           d="m 21.732283,1096.063 a 6.614173,6.614173 0 0 0 -13.228346,0 6.614173,6.614173 0 0 0 13.228346,0 z"
           style="fill:none;stroke:#ff0000;stroke-width:0.5;stroke-dasharray:none;stroke-opacity:1"
           id="path6367" />
        <path
           d="m 282.51968,684.09449 a 6.614173,6.614173 0 0 0 -13.22834,0 6.614173,6.614173 0 0 0 13.22834,0 z"
           style="fill:none;stroke:#ff0000;stroke-width:0.5;stroke-dasharray:none;stroke-opacity:1"
           id="path6369" />
        <path
           d="m 21.732283,684.09449 a 6.614173,6.614173 0 0 0 -13.228346,0 6.614173,6.614173 0 0 0 13.228346,0 z"
           style="fill:none;stroke:#ff0000;stroke-width:0.5;stroke-dasharray:none;stroke-opacity:1"
           id="path6371" />
        <path
           d="M 302.36221,668.97638 A 11.338583,11.338583 0 0 0 291.02362,657.63779"
           style="fill:none;stroke:#ff0000;stroke-width:0.5;stroke-dasharray:none;stroke-opacity:1"
           id="path6373" />
        <path
           d="M -11.338583,1111.1811 A 11.338583,11.338583 0 0 0 0,1122.5197"
           style="fill:none;stroke:#ff0000;stroke-width:0.5;stroke-dasharray:none;stroke-opacity:1"
           id="path6375" />
        <path
           d="m 291.02362,1122.5197 a 11.338583,11.338583 0 0 0 11.33859,-11.3386"
           style="fill:none;stroke:#ff0000;stroke-width:0.5;stroke-dasharray:none;stroke-opacity:1"
           id="path6377" />
        <path
           d="m 28.346457,931.65354 a 13.228347,13.228347 0 0 0 -26.456693,0 13.228347,13.228347 0 0 0 26.456693,0 z"
           style="fill:none;stroke:#ff0000;stroke-width:0.5;stroke-dasharray:none;stroke-opacity:1"
           id="path6379" />
      </g>
    </g>
  </g>
</svg>
